<svg width="27" height="18" viewBox="0 0 27 18" fill="none" xmlns="http://www.w3.org/2000/svg">
<path fill-rule="evenodd" clip-rule="evenodd" d="M26.5 9C26.5 8.74955 26.4022 8.50936 26.228 8.33227C26.0539 8.15518 25.8177 8.05569 25.5715 8.05569L3.6716 8.05569L9.51566 2.11408C9.60199 2.02628 9.67047 1.92205 9.71719 1.80733C9.76391 1.69262 9.78796 1.56967 9.78796 1.4455C9.78796 1.32134 9.76391 1.19839 9.71719 1.08368C9.67047 0.968962 9.60199 0.86473 9.51566 0.776932C9.42933 0.689133 9.32684 0.619488 9.21405 0.571972C9.10125 0.524456 8.98036 0.5 8.85827 0.5C8.73618 0.5 8.61529 0.524456 8.50249 0.571972C8.3897 0.619488 8.28721 0.689133 8.20088 0.776932L0.772785 8.33143C0.686316 8.41914 0.617712 8.52335 0.570903 8.63808C0.524094 8.7528 0.5 8.87579 0.5 9C0.5 9.12421 0.524094 9.2472 0.570903 9.36192C0.617712 9.47665 0.686316 9.58085 0.772785 9.66857L8.20088 17.2231C8.28721 17.3109 8.3897 17.3805 8.50249 17.428C8.61529 17.4755 8.73618 17.5 8.85827 17.5C8.98036 17.5 9.10125 17.4755 9.21404 17.428C9.32684 17.3805 9.42933 17.3109 9.51566 17.2231C9.60198 17.1353 9.67047 17.031 9.71719 16.9163C9.76391 16.8016 9.78795 16.6787 9.78795 16.5545C9.78795 16.4303 9.76391 16.3074 9.71719 16.1927C9.67047 16.078 9.60198 15.9737 9.51566 15.8859L3.6716 9.94431L25.5715 9.94431C25.8177 9.94431 26.0539 9.84482 26.228 9.66773C26.4022 9.49064 26.5 9.25045 26.5 9Z" fill="white"/>
</svg>
