<svg width="26" height="18" viewBox="0 0 26 18" fill="none" xmlns="http://www.w3.org/2000/svg">
<path fill-rule="evenodd" clip-rule="evenodd" d="M-1.76774e-06 9C-1.79001e-06 9.25045 0.0978226 9.49063 0.271952 9.66773C0.446082 9.84482 0.682254 9.94431 0.92851 9.94431L22.8284 9.94431L16.9843 15.8859C16.898 15.9737 16.8295 16.078 16.7828 16.1927C16.7361 16.3074 16.712 16.4303 16.712 16.5545C16.712 16.6787 16.7361 16.8016 16.7828 16.9163C16.8295 17.031 16.898 17.1353 16.9843 17.2231C17.0707 17.3109 17.1732 17.3805 17.286 17.428C17.3987 17.4755 17.5196 17.5 17.6417 17.5C17.7638 17.5 17.8847 17.4755 17.9975 17.428C18.1103 17.3805 18.2128 17.3109 18.2991 17.2231L25.7272 9.66857C25.8137 9.58086 25.8823 9.47665 25.9291 9.36192C25.9759 9.2472 26 9.12421 26 9C26 8.87579 25.9759 8.7528 25.9291 8.63808C25.8823 8.52335 25.8137 8.41915 25.7272 8.33143L18.2991 0.776933C18.2128 0.689135 18.1103 0.619489 17.9975 0.571973C17.8847 0.524457 17.7638 0.500001 17.6417 0.500001C17.5196 0.500001 17.3988 0.524457 17.286 0.571973C17.1732 0.619489 17.0707 0.689135 16.9843 0.776933C16.898 0.864732 16.8295 0.968962 16.7828 1.08368C16.7361 1.19839 16.712 1.32134 16.712 1.4455C16.712 1.56967 16.7361 1.69262 16.7828 1.80733C16.8295 1.92205 16.898 2.02628 16.9843 2.11408L22.8284 8.05569L0.928511 8.05569C0.682254 8.05569 0.446082 8.15518 0.271953 8.33227C0.0978227 8.50936 -1.74547e-06 8.74955 -1.76774e-06 9Z" fill="white"/>
</svg>
