<svg width="109" height="23" viewBox="0 0 109 23" fill="none" xmlns="http://www.w3.org/2000/svg">
<path d="M19.57 2.2L18.64 6.19H12.25L8.59 22H3.43L7.09 6.19H0.64L1.57 2.2H19.57ZM17.2188 22L22.1688 0.64H27.2688L25.0188 10.42L24.5088 11.14C24.7688 10.3 25.1588 9.55 25.6788 8.89C26.1988 8.23 26.8488 7.7 27.6288 7.3C28.4088 6.9 29.2988 6.7 30.2988 6.7C31.2988 6.7 32.1488 6.93 32.8488 7.39C33.5688 7.85 34.0688 8.5 34.3488 9.34C34.6488 10.18 34.6688 11.18 34.4088 12.34L32.1588 22H27.0588L29.1288 13.15C29.3088 12.35 29.2388 11.73 28.9188 11.29C28.5988 10.83 28.0788 10.6 27.3588 10.6C26.8188 10.6 26.3388 10.73 25.9188 10.99C25.5188 11.23 25.1688 11.6 24.8688 12.1C24.5888 12.58 24.3688 13.18 24.2088 13.9L22.3188 22H17.2188ZM43.96 22.27C42.48 22.27 41.18 21.99 40.06 21.43C38.94 20.85 38.07 20.05 37.45 19.03C36.83 18.01 36.52 16.82 36.52 15.46C36.52 13.78 36.86 12.29 37.54 10.99C38.24 9.67 39.22 8.63 40.48 7.87C41.76 7.11 43.28 6.73 45.04 6.73C46.5 6.73 47.74 7.01 48.76 7.57C49.8 8.11 50.59 8.88 51.13 9.88C51.67 10.88 51.94 12.06 51.94 13.42C51.94 13.8 51.92 14.2 51.88 14.62C51.84 15.04 51.76 15.45 51.64 15.85H39.82V13.09H48.31L46.9 13.87C46.98 13.59 47.03 13.35 47.05 13.15C47.07 12.95 47.08 12.76 47.08 12.58C47.08 12.06 46.99 11.63 46.81 11.29C46.63 10.95 46.38 10.7 46.06 10.54C45.74 10.36 45.36 10.27 44.92 10.27C44.2 10.27 43.6 10.44 43.12 10.78C42.66 11.12 42.29 11.57 42.01 12.13C41.73 12.67 41.53 13.26 41.41 13.9C41.31 14.54 41.26 15.16 41.26 15.76C41.26 16.4 41.38 16.94 41.62 17.38C41.88 17.82 42.22 18.16 42.64 18.4C43.08 18.62 43.59 18.73 44.17 18.73C44.89 18.73 45.47 18.57 45.91 18.25C46.35 17.91 46.69 17.49 46.93 16.99L51.13 18.64C50.79 19.4 50.26 20.05 49.54 20.59C48.84 21.13 48.01 21.55 47.05 21.85C46.11 22.13 45.08 22.27 43.96 22.27ZM55.1509 22V2.2H64.7809C67.2209 2.22 69.0209 2.69 70.1809 3.61C71.3409 4.51 71.9209 5.82 71.9209 7.54C71.9209 8.66 71.5909 9.63 70.9309 10.45C70.2709 11.25 69.2609 11.76 67.9009 11.98V12.01C69.4209 12.21 70.5509 12.74 71.2909 13.6C72.0509 14.44 72.4309 15.46 72.4309 16.66C72.4309 18.36 71.8309 19.68 70.6309 20.62C69.4309 21.54 67.6309 22 65.2309 22H55.1509ZM60.1309 18.37H64.3609C65.3009 18.37 66.0009 18.18 66.4609 17.8C66.9209 17.42 67.1509 16.87 67.1509 16.15C67.1509 15.45 66.9209 14.92 66.4609 14.56C66.0009 14.18 65.3009 13.99 64.3609 13.99H60.1309V18.37ZM60.1309 10.3H63.8809C65.7209 10.3 66.6409 9.58 66.6409 8.14C66.6409 6.7 65.7209 5.98 63.8809 5.98H60.1309V10.3ZM82.4388 6.7C84.0188 6.7 85.3988 7.01 86.5788 7.63C87.7788 8.23 88.7088 9.12 89.3688 10.3C90.0488 11.46 90.3888 12.86 90.3888 14.5C90.3888 16.14 90.0488 17.55 89.3688 18.73C88.7088 19.89 87.7788 20.78 86.5788 21.4C85.3988 22 84.0188 22.3 82.4388 22.3C80.8988 22.3 79.5288 22 78.3288 21.4C77.1288 20.78 76.1888 19.89 75.5088 18.73C74.8488 17.55 74.5188 16.14 74.5188 14.5C74.5188 12.86 74.8488 11.46 75.5088 10.3C76.1888 9.12 77.1288 8.23 78.3288 7.63C79.5288 7.01 80.8988 6.7 82.4388 6.7ZM82.4388 10.33C81.8588 10.33 81.3588 10.47 80.9388 10.75C80.5188 11.03 80.1988 11.48 79.9788 12.1C79.7588 12.72 79.6488 13.52 79.6488 14.5C79.6488 15.48 79.7588 16.28 79.9788 16.9C80.1988 17.5 80.5188 17.95 80.9388 18.25C81.3588 18.53 81.8588 18.67 82.4388 18.67C83.0388 18.67 83.5488 18.53 83.9688 18.25C84.3888 17.95 84.7088 17.5 84.9288 16.9C85.1488 16.28 85.2588 15.48 85.2588 14.5C85.2588 13.52 85.1488 12.72 84.9288 12.1C84.7088 11.48 84.3888 11.03 83.9688 10.75C83.5488 10.47 83.0388 10.33 82.4388 10.33ZM96.8474 7L100.507 13.75L102.187 13.6L108.097 22H102.247L98.4674 15.16H96.6974L90.9674 7H96.8474ZM107.977 7L102.307 15.1L100.417 14.98L96.4874 22H90.7574L96.7874 13.54L98.5274 13.78L102.247 7H107.977Z" fill="#2947A9"/>
</svg>
